<svg width="42" height="42" viewBox="0 0 42 42" fill="none" xmlns="http://www.w3.org/2000/svg">
<g clip-path="url(#clip0_328_1642)">
<path d="M23.625 38.4017C32.0442 37.1347 38.5 29.8704 38.5 21.0977C38.5 11.4324 30.6652 3.59766 21 3.59766C11.3348 3.59766 3.5 11.4324 3.5 21.0977C3.5 29.8704 9.95575 37.1364 18.375 38.4017V26.3477H15.75C15.0538 26.3477 14.3861 26.0711 13.8938 25.5788C13.4016 25.0865 13.125 24.4188 13.125 23.7227C13.125 23.0265 13.4016 22.3588 13.8938 21.8665C14.3861 21.3742 15.0538 21.0977 15.75 21.0977H18.375V17.5977C18.375 15.9732 19.0203 14.4153 20.169 13.2666C21.3176 12.118 22.8755 11.4727 24.5 11.4727H25.375C26.0712 11.4727 26.7389 11.7492 27.2312 12.2415C27.7234 12.7338 28 13.4015 28 14.0977C28 14.7938 27.7234 15.4615 27.2312 15.9538C26.7389 16.4461 26.0712 16.7227 25.375 16.7227H24.5C24.2679 16.7227 24.0454 16.8148 23.8813 16.9789C23.7172 17.143 23.625 17.3656 23.625 17.5977V21.0977H26.25C26.9462 21.0977 27.6139 21.3742 28.1062 21.8665C28.5984 22.3588 28.875 23.0265 28.875 23.7227C28.875 24.4188 28.5984 25.0865 28.1062 25.5788C27.6139 26.0711 26.9462 26.3477 26.25 26.3477H23.625V38.4017Z" fill="#3D5A98"/>
</g>
<defs>
<clipPath id="clip0_328_1642">
<rect width="42" height="34.804" fill="white" transform="translate(0 3.59766)"/>
</clipPath>
</defs>
</svg>
