<svg width="41" height="40" viewBox="0 0 41 40" fill="none" xmlns="http://www.w3.org/2000/svg">
<g opacity="0.5">
<path d="M8.33333 5C7.44928 5 6.60143 5.35119 5.97631 5.97631C5.35119 6.60143 5 7.44928 5 8.33333V18.3333C5 19.2174 5.35119 20.0652 5.97631 20.6904C6.60143 21.3155 7.44928 21.6667 8.33333 21.6667C8.77536 21.6667 9.19928 21.8423 9.51184 22.1548C9.8244 22.4674 10 22.8913 10 23.3333V25C10 25.8841 9.64881 26.7319 9.02369 27.357C8.39857 27.9821 7.55072 28.3333 6.66667 28.3333C6.22464 28.3333 5.80072 28.5089 5.48816 28.8215C5.17559 29.134 5 29.558 5 30V33.3333C5 33.7754 5.17559 34.1993 5.48816 34.5118C5.80072 34.8244 6.22464 35 6.66667 35C9.31883 35 11.8624 33.9464 13.7377 32.0711C15.6131 30.1957 16.6667 27.6522 16.6667 25V8.33333C16.6667 7.44928 16.3155 6.60143 15.6904 5.97631C15.0652 5.35119 14.2174 5 13.3333 5H8.33333Z" stroke="#B3261E" stroke-opacity="0.25" stroke-width="3.33333" stroke-linecap="round" stroke-linejoin="round"/>
<path d="M27.0013 5C26.1172 5 25.2694 5.35119 24.6443 5.97631C24.0192 6.60143 23.668 7.44928 23.668 8.33333V18.3333C23.668 19.2174 24.0192 20.0652 24.6443 20.6904C25.2694 21.3155 26.1172 21.6667 27.0013 21.6667C27.4433 21.6667 27.8673 21.8423 28.1798 22.1548C28.4924 22.4674 28.668 22.8913 28.668 23.3333V25C28.668 25.8841 28.3168 26.7319 27.6917 27.357C27.0665 27.9821 26.2187 28.3333 25.3346 28.3333C24.8926 28.3333 24.4687 28.5089 24.1561 28.8215C23.8436 29.134 23.668 29.558 23.668 30V33.3333C23.668 33.7754 23.8436 34.1993 24.1561 34.5118C24.4687 34.8244 24.8926 35 25.3346 35C27.9868 35 30.5303 33.9464 32.4057 32.0711C34.2811 30.1957 35.3346 27.6522 35.3346 25V8.33333C35.3346 7.44928 34.9834 6.60143 34.3583 5.97631C33.7332 5.35119 32.8854 5 32.0013 5H27.0013Z" stroke="#B3261E" stroke-opacity="0.25" stroke-width="3.33333" stroke-linecap="round" stroke-linejoin="round"/>
</g>
</svg>
