<svg width="42" height="33" viewBox="0 0 42 33" fill="none" xmlns="http://www.w3.org/2000/svg">
<g clip-path="url(#clip0_457_3168)">
<path d="M20.9965 10.9278C17.986 10.9278 15.5291 13.3846 15.5291 16.3952C15.5291 19.4057 17.986 21.8625 20.9965 21.8625C24.0071 21.8625 26.4639 19.4057 26.4639 16.3952C26.4639 13.3846 24.0071 10.9278 20.9965 10.9278ZM37.3946 16.3952C37.3946 14.1311 37.4151 11.8875 37.2879 9.62759C37.1608 7.00259 36.562 4.6729 34.6424 2.75337C32.7188 0.829735 30.3932 0.235009 27.7682 0.107861C25.5041 -0.0192879 23.2606 0.00121999 21.0006 0.00121999C18.7366 0.00121999 16.493 -0.0192879 14.2331 0.107861C11.6081 0.235009 9.27837 0.833837 7.35884 2.75337C5.4352 4.677 4.84048 7.00259 4.71333 9.62759C4.58618 11.8916 4.60669 14.1352 4.60669 16.3952C4.60669 18.6551 4.58618 20.9028 4.71333 23.1627C4.84048 25.7877 5.43931 28.1174 7.35884 30.037C9.28247 31.9606 11.6081 32.5553 14.2331 32.6825C16.4971 32.8096 18.7407 32.7891 21.0006 32.7891C23.2647 32.7891 25.5083 32.8096 27.7682 32.6825C30.3932 32.5553 32.7229 31.9565 34.6424 30.037C36.5661 28.1133 37.1608 25.7877 37.2879 23.1627C37.4192 20.9028 37.3946 18.6592 37.3946 16.3952ZM20.9965 24.8075C16.3413 24.8075 12.5842 21.0504 12.5842 16.3952C12.5842 11.7399 16.3413 7.98286 20.9965 7.98286C25.6518 7.98286 29.4088 11.7399 29.4088 16.3952C29.4088 21.0504 25.6518 24.8075 20.9965 24.8075ZM29.7534 9.60298C28.6665 9.60298 27.7887 8.72524 27.7887 7.63833C27.7887 6.55141 28.6665 5.67368 29.7534 5.67368C30.8403 5.67368 31.718 6.55141 31.718 7.63833C31.7183 7.89642 31.6677 8.15204 31.5691 8.39055C31.4705 8.62906 31.3258 8.84577 31.1433 9.02827C30.9608 9.21077 30.7441 9.35547 30.5056 9.45409C30.2671 9.55271 30.0115 9.6033 29.7534 9.60298Z" fill="url(#paint0_linear_457_3168)"/>
</g>
<defs>
<linearGradient id="paint0_linear_457_3168" x1="2.99609" y1="8.89551" x2="36.9961" y2="27.8955" gradientUnits="userSpaceOnUse">
<stop stop-color="#622066"/>
<stop offset="1" stop-color="#C837AB"/>
</linearGradient>
<clipPath id="clip0_457_3168">
<rect width="42" height="32.7903" fill="white"/>
</clipPath>
</defs>
</svg>
