<svg width="42" height="42" viewBox="0 0 42 42" fill="none" xmlns="http://www.w3.org/2000/svg">
<g clip-path="url(#clip0_328_1643)">
<path fill-rule="evenodd" clip-rule="evenodd" d="M3.5 19.25C3.5 10.7502 11.648 4.375 21 4.375C30.352 4.375 38.5 10.7502 38.5 19.25C38.5 27.7498 30.352 34.125 21 34.125C20.0795 34.125 19.1777 34.0667 18.2945 33.95L13.2195 37.331C12.9315 37.5228 12.5932 37.6249 12.2472 37.6245C11.9012 37.624 11.5631 37.5211 11.2756 37.3285C10.9881 37.136 10.7642 36.8626 10.6321 36.5428C10.4999 36.2231 10.4655 35.8713 10.5332 35.532L11.312 31.6453C6.699 29.0325 3.5 24.5297 3.5 19.25ZM17.5 11.375C17.9641 11.375 18.4092 11.5594 18.7374 11.8876C19.0656 12.2158 19.25 12.6609 19.25 13.125V25.375C19.25 25.8391 19.0656 26.2842 18.7374 26.6124C18.4092 26.9406 17.9641 27.125 17.5 27.125C17.0359 27.125 16.5908 26.9406 16.2626 26.6124C15.9344 26.2842 15.75 25.8391 15.75 25.375V13.125C15.75 12.6609 15.9344 12.2158 16.2626 11.8876C16.5908 11.5594 17.0359 11.375 17.5 11.375ZM19.25 21C19.25 20.6132 19.3778 20.2265 19.635 19.9062L23.135 15.5312C23.4302 15.1855 23.8485 14.9682 24.3011 14.9254C24.7538 14.8826 25.2053 15.0177 25.5601 15.302C25.9149 15.5863 26.1452 15.9975 26.2021 16.4486C26.259 16.8997 26.1381 17.3552 25.865 17.7188L23.24 21L25.865 24.2812C26.0172 24.4595 26.1321 24.6665 26.2027 24.8901C26.2734 25.1136 26.2985 25.349 26.2764 25.5824C26.2543 25.8157 26.1856 26.0423 26.0743 26.2486C25.963 26.4549 25.8114 26.6367 25.6285 26.7833C25.4455 26.9299 25.235 27.0382 25.0094 27.1019C24.7838 27.1655 24.5477 27.1832 24.3151 27.1539C24.0826 27.1245 23.8583 27.0488 23.6555 26.9311C23.4528 26.8134 23.2758 26.6562 23.135 26.4688L19.635 22.0938C19.3861 21.7835 19.2503 21.3977 19.25 21Z" fill="#FFC60A"/>
<path d="M19.635 19.9062C19.3778 20.2265 19.25 20.6132 19.25 21C19.2503 21.3977 19.3861 21.7835 19.635 22.0938L23.135 26.4688C23.2758 26.6562 23.4528 26.8134 23.6555 26.9311C23.8583 27.0488 24.0826 27.1245 24.3151 27.1539C24.5477 27.1832 24.7838 27.1655 25.0094 27.1019C25.235 27.0382 25.4455 26.9299 25.6285 26.7833C25.8114 26.6367 25.963 26.4549 26.0743 26.2486C26.1856 26.0423 26.2543 25.8157 26.2764 25.5824C26.2985 25.349 26.2734 25.1136 26.2027 24.8901C26.1321 24.6665 26.0172 24.4595 25.865 24.2812L23.24 21L25.865 17.7188C26.1381 17.3552 26.259 16.8997 26.2021 16.4486C26.1452 15.9975 25.9149 15.5863 25.5601 15.302C25.2053 15.0177 24.7538 14.8826 24.3011 14.9254C23.8485 14.9682 23.4302 15.1855 23.135 15.5312L19.635 19.9062Z" fill="#382E0B"/>
<path d="M18.7374 11.8876C18.4092 11.5594 17.9641 11.375 17.5 11.375C17.0359 11.375 16.5908 11.5594 16.2626 11.8876C15.9344 12.2158 15.75 12.6609 15.75 13.125V25.375C15.75 25.8391 15.9344 26.2842 16.2626 26.6124C16.5908 26.9406 17.0359 27.125 17.5 27.125C17.9641 27.125 18.4092 26.9406 18.7374 26.6124C19.0656 26.2842 19.25 25.8391 19.25 25.375V21V13.125C19.25 12.6609 19.0656 12.2158 18.7374 11.8876Z" fill="#382E0B"/>
</g>
<defs>
<clipPath id="clip0_328_1643">
<rect width="42" height="33.2495" fill="white" transform="translate(0 4.375)"/>
</clipPath>
</defs>
</svg>
