<svg width="126" height="26" viewBox="0 0 126 26" fill="none" xmlns="http://www.w3.org/2000/svg">
<path d="M18.2561 18.7873C16.5761 18.7873 14.2801 18.8153 12.4601 19.0393C11.2281 19.1793 9.43609 19.3473 8.20409 19.8513C7.50409 20.1313 6.83209 20.1873 6.16009 19.9353C5.34809 19.6273 4.20009 18.9553 3.44409 18.0873C3.19209 17.8073 3.13609 17.5273 3.24809 17.2753C3.33209 17.0793 3.50009 16.7713 3.69609 16.5753C3.89209 16.3793 4.11609 16.3513 4.39609 16.4353C5.54409 16.7713 6.72009 17.1073 7.92409 17.1913C8.98809 17.2753 10.2201 17.3033 11.2001 17.2753C10.9761 16.0153 10.9201 14.0273 10.9201 12.7953C9.46409 12.8793 8.03609 13.0193 6.80409 13.1873C5.12409 13.4393 4.31209 13.6913 3.55609 13.6633C2.96809 13.6353 2.18409 13.2153 1.73609 12.8513C1.09209 12.3753 0.784094 12.0673 0.252094 11.4233C0.0560938 11.1433 9.37805e-05 10.8633 0.140094 10.5833C0.224094 10.3873 0.364094 10.1073 0.504094 9.99531C0.728094 9.79931 0.896094 9.79931 1.26009 9.91131C2.40809 10.2473 3.66809 10.6953 4.81609 10.8073C7.16809 11.0593 10.0241 10.9473 12.7121 10.9473C13.8321 10.9473 15.0921 10.9473 16.2961 10.9193C16.9401 8.87531 17.3881 5.65531 17.1921 4.00331C14.8121 4.00331 11.4241 4.39531 8.56809 5.43131C7.81209 5.71131 7.11209 5.68331 6.46809 5.37531C5.60009 4.95531 4.92809 4.50731 4.22809 3.63931C3.94809 3.27531 3.86409 2.96731 4.00409 2.68731C4.11609 2.43531 4.25609 2.23931 4.50809 1.98731C4.73209 1.76331 4.95609 1.79131 5.20809 1.87531C6.41209 2.32331 7.36409 2.60331 8.59609 2.65931C11.5081 2.79931 14.1121 2.37931 16.6041 1.28731C17.0241 1.09131 17.4721 1.03531 18.0041 1.23131C18.8161 1.53931 19.5441 1.90331 20.2441 2.43531C20.6921 2.79931 20.8601 3.19131 20.7761 3.66731C20.2721 6.15931 19.4601 8.87531 18.4241 10.8073C19.6561 10.7233 20.8041 10.5553 21.6441 10.2753C23.1841 9.77131 24.7801 10.0513 24.7801 11.7313C24.7801 13.4953 22.9881 13.6353 21.4481 13.1873C19.7121 12.7113 17.2761 12.6553 13.8601 12.7113C13.8881 13.8873 13.8041 15.8473 13.6361 17.1633C14.8401 17.0233 15.7081 16.7993 16.4921 16.5193C17.0241 16.3233 17.1921 16.1273 17.6121 16.0153C17.8641 15.9313 18.4241 15.9593 18.7601 16.0993C19.5441 16.4073 20.2721 16.7433 20.9441 17.3033C21.3081 17.6113 21.4761 17.8633 21.3921 18.4233C20.9721 21.3073 19.8801 23.4633 17.4721 25.0033C16.5481 25.5913 15.9321 24.7793 16.4921 23.9953C17.5841 22.5113 18.2561 20.9153 18.2561 18.7873ZM48.6593 5.73931V22.7633C48.6593 23.9673 47.7913 24.7233 46.7553 24.7233C46.1673 24.7233 45.8593 24.3873 45.8593 23.6873V12.6553C44.9633 12.4873 43.7873 12.4593 42.8353 12.5993V21.2513C42.8353 22.4553 41.9673 23.2113 40.9313 23.2113C40.3433 23.2113 40.0353 22.8753 40.0353 22.1753V16.9393C37.3193 18.8433 33.7353 20.3273 30.1233 20.7193C29.7313 20.7753 29.3953 20.6913 29.0593 20.4113C28.5553 20.0193 27.8553 19.2073 27.4913 18.5913C27.2953 18.2833 27.3793 17.8353 27.5753 17.6393C27.9673 17.2193 28.0793 16.7713 28.1073 16.0993C28.2193 13.9713 28.1633 11.6193 27.8273 9.29531C27.6873 8.28731 27.4073 7.92331 26.6513 7.53131C26.2873 7.33531 26.3153 7.02731 26.5113 6.60731C26.6233 6.29931 26.8473 5.87931 27.1553 5.54331C27.4633 5.23531 27.6313 5.20731 28.0513 5.34731C28.6393 5.54331 29.2833 5.68331 29.9833 5.68331C31.1873 5.68331 32.7833 5.65531 33.4273 5.26331C34.0993 4.87131 34.3233 4.84331 34.8553 5.03931C35.6393 5.34731 36.1993 5.62731 36.8433 6.04731C37.2633 6.35531 37.3753 6.49531 37.3193 6.80331C37.2913 6.99931 37.1233 7.33531 36.9833 7.55931C36.8713 7.75531 36.6473 7.86731 36.3113 7.83931C34.6033 7.75531 32.1953 7.81131 30.6833 8.03531C30.5993 9.74331 30.7673 16.0713 30.8793 18.0033C33.7353 17.7793 37.0953 16.8273 40.0353 15.2593V6.32731C40.0353 4.87131 39.5313 4.31131 37.7393 3.63931C37.4873 3.55531 37.3753 3.33131 37.4313 2.96731C37.4593 2.77131 37.5433 2.43531 37.6553 2.23931C37.7673 2.01531 37.9073 1.90331 38.2433 1.95931C39.5593 2.18331 40.3993 2.40731 41.4353 2.82731C42.3313 3.16331 42.7513 3.80731 42.8913 4.56331C43.0313 5.31931 42.8353 6.15931 42.8353 7.16731V10.3313C43.8433 10.4713 44.8793 10.4713 45.8593 10.3033V4.89931C45.8593 3.44331 45.3553 2.88331 43.5633 2.21131C43.3113 2.12731 43.1993 1.90331 43.2553 1.53931C43.2833 1.34331 43.3673 1.00731 43.4793 0.811311C43.5913 0.587311 43.7313 0.475312 44.0673 0.531312C45.3833 0.755312 46.2233 0.979311 47.2593 1.39931C48.1553 1.73531 48.5753 2.37931 48.7153 3.13531C48.8553 3.89131 48.6593 4.73131 48.6593 5.73931Z" fill="#981B1B"/>
<path d="M59.4625 2.37931L60.6105 2.91131C60.8065 2.96731 61.0025 2.99531 61.3105 3.02331C62.1225 3.07931 63.1865 2.88331 63.8305 2.46331C64.3905 2.09931 64.7545 2.04331 65.2865 2.29531C66.0425 2.65931 66.4905 2.91131 67.0785 3.35931C67.4705 3.66731 67.6105 3.80731 67.5545 4.11531C67.5265 4.31131 67.4425 4.50731 67.3025 4.73131C67.1905 4.92731 66.9665 5.03931 66.6305 5.01131C65.3145 4.95531 63.7185 5.01131 62.5985 5.17931C62.5145 6.88731 62.5705 10.6393 62.6825 12.5713C64.3625 12.5993 65.9585 12.2353 67.7505 11.7313C68.5905 11.4793 68.8425 12.2633 68.1985 12.7393C66.3785 14.0553 64.4185 14.8673 61.8705 15.2593C61.4225 15.3153 61.0585 15.2313 60.6945 14.9793C60.1625 14.6153 59.5745 13.8593 59.2385 13.2713C58.0625 13.8873 56.7745 14.4193 55.5425 14.5313C55.1505 14.5593 54.8425 14.5033 54.4785 14.2513C53.9465 13.8593 53.4145 13.1593 53.0785 12.5433C52.9105 12.2353 52.9665 11.7873 53.1625 11.5913C53.5545 11.1713 53.7505 10.6673 53.8065 9.99531C53.8905 9.01531 53.8625 7.86731 53.7225 6.69131C53.5825 5.68331 53.1625 5.31931 52.4065 4.92731C52.0425 4.73131 52.0705 4.42331 52.2665 4.00331C52.3785 3.69531 52.6025 3.30331 52.9105 2.96731C53.2185 2.65931 53.3865 2.60331 53.8065 2.77131C54.3105 2.96731 54.5345 3.10731 55.1785 3.16331C56.1025 3.21931 57.2505 3.02331 58.0345 2.57531C58.7065 2.18331 58.9305 2.18331 59.4625 2.37931ZM74.0785 5.26331V13.2433C74.0785 14.4473 73.2105 15.2033 72.1745 15.2033C71.5305 15.2033 71.2225 14.8673 71.2225 14.1673V9.09931C70.1305 9.21131 69.2905 9.46331 68.3665 9.85531C67.8905 10.0513 67.4985 10.0513 67.1065 9.93931C66.4065 9.74331 65.6505 9.35131 65.0905 8.87531C64.8945 8.70731 64.8665 8.48331 64.8945 8.28731C64.9225 8.06331 65.1465 7.50331 65.2585 7.22331C65.3985 6.94331 65.5385 6.91531 65.7905 6.97131C66.5745 7.19531 67.4145 7.33531 68.2825 7.36331C69.3745 7.39131 70.1025 7.30731 71.2225 7.13931V4.42331C71.2225 2.93931 70.7185 2.40731 68.9265 1.73531C68.6745 1.65131 68.5625 1.42731 68.6185 1.06331C68.6465 0.867312 68.7305 0.531312 68.8425 0.335311C68.9545 0.111312 69.0945 -0.000688314 69.4305 0.055311C70.7465 0.279311 71.6425 0.503312 72.6785 0.923311C73.5745 1.25931 73.9945 1.90331 74.1345 2.65931C74.2745 3.41531 74.0785 4.25531 74.0785 5.26331ZM71.1105 18.7873C69.4305 18.7873 67.1345 18.8153 65.3145 19.0393C64.0825 19.1793 62.3465 19.3473 61.1145 19.8513C60.4145 20.1313 59.7425 20.1873 59.0705 19.9353C58.2585 19.6273 57.1105 18.9553 56.3545 18.0873C56.1025 17.8073 56.0465 17.5273 56.1585 17.2753C56.2425 17.0793 56.4105 16.7713 56.6065 16.5753C56.8025 16.3793 57.0265 16.3513 57.3065 16.4353C58.4545 16.7713 59.6305 17.1073 60.8345 17.1913C62.4305 17.3033 64.2505 17.2753 65.2585 17.2473C67.1625 17.1633 68.3385 16.8833 69.3465 16.5193C69.8785 16.3233 70.0465 16.1273 70.4665 16.0153C70.7185 15.9313 71.2785 15.9593 71.6145 16.0993C72.3985 16.4073 73.1265 16.7433 73.7985 17.3033C74.1625 17.6113 74.3305 17.8633 74.2465 18.4233C73.8265 21.3073 72.7345 23.4633 70.3265 25.0033C69.4025 25.5913 68.7865 24.7793 69.3465 23.9953C70.4385 22.5113 71.1105 20.9153 71.1105 18.7873ZM56.4945 11.9833C57.3625 11.8713 58.6225 11.6193 59.8545 11.2273L59.9385 10.7793C60.1065 9.43531 60.1065 8.06331 59.9385 6.55131C59.8545 5.79531 59.7145 5.40331 59.4905 5.12331C58.3985 5.12331 57.1945 5.20731 56.4665 5.31931C56.3825 7.02731 56.3825 10.0513 56.4945 11.9833ZM78.1057 12.3193C78.3297 12.1233 78.4977 12.1233 78.8617 12.2353C80.0097 12.5713 81.2697 13.0193 82.4177 13.1313C84.2657 13.3273 86.4497 13.2993 88.6337 13.2713C88.6337 12.5713 88.6897 11.6193 88.7457 10.8353C87.2897 11.0313 85.8897 11.1993 84.7697 11.3113C84.4057 11.3393 83.9297 11.2833 83.6217 11.0313C83.2017 10.6953 82.4737 9.88331 82.1657 9.35131C82.0257 9.07131 81.9977 8.76331 82.1657 8.48331C82.5857 7.75531 82.6697 7.33531 82.6697 6.52331V4.89931C82.6697 3.89131 82.6137 3.66731 82.3057 3.35931C82.0537 3.10731 81.8857 2.96731 81.2417 2.65931C80.9897 2.51931 80.9337 2.29531 80.9897 2.04331C81.0177 1.84731 81.1297 1.53931 81.2697 1.34331C81.3817 1.14731 81.4937 1.03531 81.8577 1.09131C82.7537 1.23131 83.7057 1.45531 84.6017 1.87531C85.3577 2.23931 85.4977 2.43531 85.4977 3.07931V4.19931C88.0177 4.25531 93.0017 4.17131 95.1017 4.05931V3.63931C95.1017 3.16331 94.9897 2.82731 94.7937 2.65931C94.5137 2.43531 94.0937 2.18331 93.4497 1.87531C93.1977 1.73531 93.1417 1.51131 93.1977 1.25931C93.2257 1.06331 93.3377 0.755312 93.4777 0.559311C93.5897 0.363312 93.7017 0.251312 94.0657 0.307311C94.9617 0.447311 96.1377 0.755312 97.0337 1.17531C97.7897 1.53931 97.9577 1.73531 98.0137 2.37931C98.0697 3.05131 97.9017 4.00331 97.9017 4.92731V9.15531C97.9017 10.5833 96.9497 11.2553 95.9417 11.2553C95.2977 11.2553 95.0737 10.9753 95.0737 10.2193V9.77131C94.0377 9.99531 92.8057 10.2193 91.4617 10.4153C91.5177 11.2553 91.5457 12.4313 91.5737 13.2713C94.3457 13.2713 97.4537 13.1873 99.2457 12.5993C100.786 12.0953 102.382 12.3753 102.382 14.0553C102.382 15.8193 100.59 15.9593 99.0497 15.5113C97.1457 14.9793 94.4017 14.9793 90.4537 15.0633C88.3257 15.0913 86.1977 15.2593 84.4057 15.5113C82.7257 15.7633 81.9137 16.0153 81.1577 15.9873C80.5697 15.9593 79.7857 15.5393 79.3377 15.1753C78.6937 14.6993 78.3857 14.3913 77.8537 13.7473C77.6577 13.4673 77.6017 13.1873 77.7417 12.9073C77.8257 12.7113 77.9657 12.4313 78.1057 12.3193ZM88.1577 19.4873C86.7297 19.4873 86.3937 19.4873 84.9657 20.0473C84.2377 20.3273 83.5657 20.4113 82.9217 20.1873C82.1097 19.8793 81.6617 19.4873 80.9057 18.7313C80.5977 18.4233 80.6257 18.1993 80.7377 17.9473C80.8217 17.7513 80.9337 17.5833 81.1017 17.4153C81.2977 17.2193 81.5217 17.1633 81.8017 17.2473C82.7817 17.5553 83.2857 17.7233 84.4337 17.8073C85.3017 17.8913 85.6657 17.8353 86.4777 17.4713C87.0097 17.2473 87.2897 17.0513 87.7097 16.9393C87.9617 16.8553 88.5217 16.9393 88.8577 17.0513C89.5857 17.3033 90.0057 17.4433 90.4817 17.8073C91.7697 17.8073 93.0577 17.6393 94.2057 17.1633C94.7377 16.9393 95.1297 16.7713 95.5497 16.6873C95.8577 16.6033 96.3057 16.6593 96.6417 16.7713C97.6217 17.1073 98.0697 17.3313 98.7697 17.8913C99.1897 18.2273 99.2457 18.5913 99.1617 19.1233C98.7417 21.6153 97.6497 23.7433 95.3817 25.0873C94.7377 25.4513 94.1217 24.9753 94.5137 24.2753C95.3537 22.7633 95.9417 21.1393 95.9417 19.2073C94.5417 19.1513 92.8057 19.2913 91.2937 19.5713C90.7897 21.8113 89.8657 23.7433 87.7097 25.0033C86.9817 25.4233 86.4777 24.7793 86.8697 24.1913C87.7377 22.8753 88.2417 21.2793 88.1577 19.4873ZM85.4977 6.32731V8.67931C88.0177 8.76331 92.2177 8.53931 95.0737 8.09131V6.13131C92.9177 6.07531 87.9057 6.15931 85.4977 6.32731ZM111.925 5.82331C109.657 5.82331 108.061 8.48331 108.061 12.6553C108.061 16.8833 109.825 18.9553 111.925 18.9553C113.997 18.9553 115.789 16.8833 115.789 12.6553C115.789 8.48331 114.165 5.82331 111.925 5.82331ZM113.241 4.39531C116.461 4.78731 118.365 8.20331 118.505 12.6553C118.645 16.7993 116.741 21.0833 111.925 21.0833C107.221 21.0833 105.289 17.4713 105.289 12.6553C105.289 7.81131 107.277 3.66731 111.841 3.21931C112.709 3.13531 113.269 3.58331 113.241 4.39531ZM125.813 5.73931V22.7633C125.813 23.9673 124.889 24.7233 123.853 24.7233C123.265 24.7233 122.957 24.3873 122.957 23.6873V4.89931C122.957 3.44331 122.453 2.88331 120.661 2.21131C120.409 2.12731 120.297 1.90331 120.353 1.53931C120.381 1.34331 120.465 1.00731 120.577 0.811311C120.689 0.587311 120.829 0.475312 121.165 0.531312C122.481 0.755312 123.377 0.979311 124.413 1.39931C125.309 1.73531 125.729 2.37931 125.869 3.13531C126.009 3.89131 125.813 4.73131 125.813 5.73931Z" fill="#111111"/>
</svg>
